<svg xmlns="http://www.w3.org/2000/svg" viewBox="10 2 28.562 39.589">
    <defs>
        <style>
            .cls-1{fill:#ffffff}.cls-2{fill:#ddd}.cls-3{fill:#ffffff;fill-rule:evenodd}.cls-4{fill:#ffffff}.cls-5{fill:#fff;font-size:11px;font-family:SegoeUI,Segoe UI}
        </style>
    </defs>
    <g id="cart" transform="translate(-1115.665 -59.593)">
        <path id="Path_1" d="M1416.452 1121h19.957a1.431 1.431 0 0 1 1.452 1.408l-1.7 11.338a1.141 1.141 0 0 1-1.095.943H1418.9a1.268 1.268 0 0 1-1.176-.927l-2.724-11.354a1.431 1.431 0 0 1 1.452-1.408z" class="cls-1" data-name="Path 1" transform="translate(-288.995 -1045.235)"/>
        <path id="Path_4" d="M1422.86 1075.861l3.366-1.318a1.137 1.137 0 0 0 .5-1.262c-.1-.551-.488-.878-.864-.73l-3.8 1.489a.968.968 0 0 0-.511.812 1.47 1.47 0 0 0-.013.12l-2.413 24.183c-.042.412-.3.721-.579.721h-15.567c-.325 0-.607-.33-.677-.783l-2.738-16.08c.056-.722.48-1.3.974-1.278h16a.628.628 0 0 0 .508-.309 1.417 1.417 0 0 0 0-1.443.628.628 0 0 0-.508-.309h-15.99a2.049 2.049 0 0 0-1.679.989 4.366 4.366 0 0 0-.72 2.433 1.451 1.451 0 0 0 .014.247l2.766 16.225c.226 1.381 1.073 2.371 2.046 2.371h15.567c.988 0 1.835-1.072 1.976-2.495zm-20.08 32.056c0-1.707.948-3.092 2.117-3.092s2.117 1.385 2.117 3.092-.948 3.092-2.117 3.092-2.117-1.385-2.117-3.092zm1.129 0c0-.8.443-1.443.988-1.443s.988.647.988 1.443-.443 1.443-.988 1.443-.988-.647-.988-1.443zm10.979 0c0-1.707.948-3.092 2.117-3.092s2.117 1.385 2.117 3.092-.948 3.092-2.117 3.092-2.117-1.385-2.117-3.092zm1.129 0c0-.8.443-1.443.988-1.443s.988.647.988 1.443-.442 1.443-.988 1.443-.988-.647-.988-1.443z" class="cls-3" data-name="Path 4" transform="translate(-272.523 -1010.827)"/>
    </g>
</svg>
