<svg xmlns="http://www.w3.org/2000/svg" id="Google_" data-name="Google +" viewBox="0 0 36 36">
    <defs>
        <style>
            .cls-1{fill:#dd4b39}.cls-2{fill:#fff}
        </style>
    </defs>
    <circle id="Oval-1-Copy-6" cx="18" cy="18" r="18" class="cls-1"/>
    <path id="Union_4" d="M930.642-5031.912a8.325 8.325 0 0 1-5.157-8.168 8.186 8.186 0 0 1 8.1-7.884 8.118 8.118 0 0 1 5.425 2.05 29.291 29.291 0 0 1-2.06 2.182c-1.845-1.305-4.471-1.678-6.316-.17a5.4 5.4 0 0 0-.221 8.29c2.47 2.293 7.139 1.154 7.822-2.356-1.547-.023-3.1 0-4.646-.051 0-.944-.007-1.889 0-2.832 2.586-.008 5.173-.013 7.763.007a9.7 9.7 0 0 1-1.466 6.422 7.545 7.545 0 0 1-6.251 3.068 8.2 8.2 0 0 1-2.993-.558zm16.347-3.845c-.008-.789-.008-1.578-.015-2.368l-2.319-.024v-2.359c.772-.008 1.543-.013 2.319-.016 0-.793.012-1.583.019-2.372h2.307q.005 1.184.015 2.372c.772.008 1.547.008 2.319.016v2.359l-2.319.021q-.012 1.189-.015 2.371z" class="cls-2" data-name="Union 4" transform="translate(-920.053 5058.004)"/>
</svg>
