<svg xmlns="http://www.w3.org/2000/svg" viewBox="0 0 37 37">
    <defs>
        <style>
            .cls-1{fill:#f5f5f5;stroke:#f1efef}.cls-2{fill:url(#linear-gradient)}
        </style>
        <linearGradient id="linear-gradient" x1=".5" x2=".5" y1=".008" y2=".998" gradientUnits="objectBoundingBox">
            <stop offset="0" stop-color="#e09b3d"/>
            <stop offset=".3" stop-color="#c74c4d"/>
            <stop offset=".6" stop-color="#c21975"/>
            <stop offset="1" stop-color="#7024c4"/>
        </linearGradient>
    </defs>
    <g id="Instagram" transform="translate(.9 .973)">
        <circle id="Oval-1-Copy-6" cx="18" cy="18" r="18" class="cls-1" transform="translate(-.4 -.473)"/>
        <path id="Union_5" d="M7.447 25A7.456 7.456 0 0 1 0 17.553V7.448A7.456 7.456 0 0 1 7.447 0h10.1A7.456 7.456 0 0 1 25 7.448v10.1A7.456 7.456 0 0 1 17.552 25zM2.515 7.448v10.1a4.933 4.933 0 0 0 4.933 4.932h10.1a4.933 4.933 0 0 0 4.932-4.932v-10.1a4.932 4.932 0 0 0-4.932-4.933H7.447a4.933 4.933 0 0 0-4.932 4.933zM6.034 12.5A6.612 6.612 0 0 1 12.5 5.761a6.612 6.612 0 0 1 6.466 6.739 6.612 6.612 0 0 1-6.466 6.73 6.612 6.612 0 0 1-6.466-6.73zm2.515 0a4.036 4.036 0 0 0 3.951 4.111 4.036 4.036 0 0 0 3.951-4.111A4.036 4.036 0 0 0 12.5 8.381 4.036 4.036 0 0 0 8.549 12.5zm8.88-6.5a1.551 1.551 0 1 1 3.1 0 1.551 1.551 0 1 1-3.1 0z" class="cls-2" data-name="Union 5" transform="translate(5.1 5.027)"/>
    </g>
</svg>
