<svg xmlns="http://www.w3.org/2000/svg" id="LinkedIn" viewBox="0 0 36 36">
    <defs>
        <style>
            .cls-1{fill:#0976b4}.cls-2{fill:#fff}
        </style>
    </defs>
    <circle id="Oval-1-Copy-5" cx="18" cy="18" r="18" class="cls-1"/>
    <path id="Union_3" d="M1052.185-5032.422v-8.972c0-1.839-.4-3.681-2.038-3.681s-2.319 1.842-2.319 3.726v8.926h-4.364v-16.428h4.364v2.211c1.148-1.931 2.146-2.729 3.954-2.729s4.754 1.118 4.754 7.607v9.338zm-16.759 0v-11.223h4.934v11.223zm0-15.055a2.481 2.481 0 0 1 2.468-2.5 2.481 2.481 0 0 1 2.466 2.5 2.479 2.479 0 0 1-2.466 2.493 2.479 2.479 0 0 1-2.468-2.494z" class="cls-2" data-name="Union 3" transform="translate(-1026.859 5058.107)"/>
</svg>
