<svg xmlns="http://www.w3.org/2000/svg" id="Twiter" viewBox="0 0 36 36">
    <defs>
        <style>
            .cls-1{fill:#55acee}.cls-2{fill:#fff;fill-rule:evenodd}
        </style>
    </defs>
    <circle id="Oval-1" cx="18" cy="18" r="18" class="cls-1"/>
    <path id="Fill-1" d="M42.321 21.4a9.084 9.084 0 0 1-3.221 1.01A5.494 5.494 0 0 0 35.367 21c-2.852 0-5.164 2.044-5.164 4.565a4.061 4.061 0 0 0 .131 1.019 15.023 15.023 0 0 1-10.646-4.738 4.266 4.266 0 0 0 1.566 6.033A3.656 3.656 0 0 1 19 27.362c-.035 1.591.83 3.7 3.984 4.462a4.6 4.6 0 0 1-2.15.145c.164 1.343 2.291 3.1 4.616 3.1A9.985 9.985 0 0 1 18 36.963a17.062 17.062 0 0 0 8.079 2.019c8.332 0 14.8-5.97 14.454-13.335v-.025-.058-.067a8.407 8.407 0 0 0 2.5-2.338 9.957 9.957 0 0 1-2.864.719 4.985 4.985 0 0 0 2.151-2.48" class="cls-2" transform="translate(-13 -12.207)"/>
</svg>
