<svg xmlns="http://www.w3.org/2000/svg" viewBox="0 0 36 36">
    <defs>
        <style>
            .cls-1{fill:#ededed}.cls-2{fill:#55cd6c}.cls-3{fill:#fefefe}
        </style>
    </defs>
    <g id="Wats_App" data-name="Wats App" transform="translate(.474 -.427)">
        <path id="Path_1" d="M0 36l2.483-9A17.9 17.9 0 0 1 17.938 0 18.081 18.081 0 0 1 36 17.876 18.3 18.3 0 0 1 17.938 36a18.069 18.069 0 0 1-8.752-2.483z" class="cls-1" data-name="Path 1" transform="translate(-.474 .427)"/>
        <path id="Path_2" d="M50.763 71.513l.563.313a14.839 14.839 0 0 0 7.813 2.313 15.152 15.152 0 0 0 15-15.125 15 15 0 0 0-30 0 15.141 15.141 0 0 0 2.312 8.063l.375.563-1.437 5.25z" class="cls-2" data-name="Path 2" transform="translate(-41.612 -40.711)"/>
        <path id="Path_3" d="M132.856 135.12l-.919-.058a1 1 0 0 0-.774.346 4.905 4.905 0 0 0-1.354 2.476 8.534 8.534 0 0 0 1.451 5.873 15.217 15.217 0 0 0 7.929 6.852 3.394 3.394 0 0 0 3.288-.461 3.47 3.47 0 0 0 1.257-2.188l.145-.806a.624.624 0 0 0-.242-.633l-3.046-1.67a.418.418 0 0 0-.58.173l-1.209 1.843a.336.336 0 0 1-.387.115 9.931 9.931 0 0 1-5.077-5.182.5.5 0 0 1 .048-.461l1.16-1.555a.821.821 0 0 0 .1-.576l-1.4-3.743a.44.44 0 0 0-.387-.346" class="cls-3" data-name="Path 3" transform="translate(-119.183 -124.635)"/>
    </g>
</svg>
